PathFileType	4	(X/Y/Z)	RBDS011static.trc
DataRate	CameraRate	NumFrames	NumMarkers	Units	OrigDataRate	OrigDataStartFrame	OrigNumFrames
150.000000	150.000000	4	48	mm	150.000000	112	150
Frame#	Time	L.Ankle			L.Ankle.Medial			L.ASIS			L.GTR			L.Heel.Bottom			L.Heel.Lateral			L.Heel.Top			L.HF			L.Iliac.Crest			L.Knee			L.Knee.Medial			L.MT1			L.MT2			L.MT5			L.PSIS			L.Shank.Bottom.Lateral			L.Shank.Bottom.Medial			L.Shank.Top.Lateral			L.Shank.Top.Medial			L.Thigh.Bottom.Lateral			L.Thigh.Bottom.Medial			L.Thigh.Top.Lateral			L.Thigh.Top.Medial			L.TT			R.Ankle			R.Ankle.Medial			R.ASIS			R.GTR			R.Heel.Bottom			R.Heel.Lateral			R.Heel.Top			R.HF			R.Iliac.Crest			R.Knee			R.Knee.Medial			R.MT1			R.MT2			R.MT5			R.PSIS			R.Shank.Bottom.Lateral			R.Shank.Bottom.Medial			R.Shank.Top.Lateral			R.Shank.Top.Medial			R.Thigh.Bottom.Lateral			R.Thigh.Bottom.Medial			R.Thigh.Top.Lateral			R.Thigh.Top.Medial			R.TT			
		X1	Y1	Z1	X2	Y2	Z2	X3	Y3	Z3	X4	Y4	Z4	X5	Y5	Z5	X6	Y6	Z6	X7	Y7	Z7	X8	Y8	Z8	X9	Y9	Z9	X10	Y10	Z10	X11	Y11	Z11	X12	Y12	Z12	X13	Y13	Z13	X14	Y14	Z14	X15	Y15	Z15	X16	Y16	Z16	X17	Y17	Z17	X18	Y18	Z18	X19	Y19	Z19	X20	Y20	Z20	X21	Y21	Z21	X22	Y22	Z22	X23	Y23	Z23	X24	Y24	Z24	X25	Y25	Z25	X26	Y26	Z26	X27	Y27	Z27	X28	Y28	Z28	X29	Y29	Z29	X30	Y30	Z30	X31	Y31	Z31	X32	Y32	Z32	X33	Y33	Z33	X34	Y34	Z34	X35	Y35	Z35	X36	Y36	Z36	X37	Y37	Z37	X38	Y38	Z38	X39	Y39	Z39	X40	Y40	Z40	X41	Y41	Z41	X42	Y42	Z42	X43	Y43	Z43	X44	Y44	Z44	X45	Y45	Z45	X46	Y46	Z46	X47	Y47	Z47	X48	Y48	Z48	

113	0.7466666666666667	713.9754638671875	107.3538970947266	1037.131958007813	735.4544067382813	120.8017654418945	1120.403930664063	880.6185302734375	1028.97509765625	1086.625122070313	822.3434448242188	919.8735961914063	1032.042236328125	638.9860229492188	42.56695556640625	1083.83837890625	663.3510131835938	57.19845199584961	1044.857177734375	649.649169921875	91.25343322753906	1085.520141601563	751.776123046875	471.1106872558594	1034.726318359375	809.4360961914063	1089.185913085938	1048.771606445313	757.0222778320313	537.549072265625	1039.9521484375	761.7124633789063	517.8590087890625	1161.213989257813	864.8184204101563	54.4732551574707	1124.936401367188	876.5631103515625	66.36119842529297	1077.369018554688	836.265625	49.42720031738281	1009.159729003906	706.0905151367188	1042.923828125	1150.662719726563	707.5545654296875	188.8404998779297	1034.972045898438	672.64599609375	192.9537811279297	1077.56494140625	705.0909423828125	268.8414001464844	1025.989135742188	672.5516967773438	273.5265808105469	1069.140258789063	778.9154052734375	646.337646484375	1025.689453125	717.7348022460938	647.150634765625	1065.625244140625	772.6728515625	756.4895629882813	1020.46484375	718.5490112304688	757.7012329101563	1063.383056640625	813.7218017578125	455.9450988769531	1080.295043945313	714.189453125	107.8061828613281	1416.300659179688	736.4556274414063	125.9939346313477	1333.976684570313	862.58056640625	1033.108642578125	1341.495483398438	801.9656982421875	924.6226806640625	1395.900390625	640.0134887695313	43.77613067626953	1374.713500976563	666.658935546875	64.22182464599609	1414.709716796875	650.7630004882813	93.64596557617188	1373.688842773438	750.0736083984375	476.7195739746094	1408.18359375	796.1492309570313	1081.349609375	1367.485473632813	759.3963623046875	539.11767578125	1401.94580078125	763.9619750976563	523.1719970703125	1279.661010742188	861.801513671875	57.84210586547852	1327.2353515625	870.4556274414063	71.5845947265625	1372.95703125	841.9373779296875	49.2724723815918	1444.357299804688	698.6005249023438	1046.460205078125	1252.430541992188	701.1838989257813	182.2085876464844	1414.105712890625	669.2194213867188	190.5392456054688	1374.947265625	705.1190795898438	266.5049438476563	1425.110961914063	671.038818359375	269.9730529785156	1383.693969726563	758.2921142578125	655.3414916992188	1406.735473632813	706.3016357421875	655.4728393554688	1353.8857421875	753.6727905273438	764.8680419921875	1407.694213867188	705.6286010742188	766.0025634765625	1358.004516601563	811.5646362304688	460.395263671875	1371.0986328125	
114	0.7533333333333334	713.9732055664063	107.3516998291016	1037.1318359375	735.4479370117188	120.8060073852539	1120.39892578125	880.656005859375	1029.025512695313	1086.773071289063	822.3419189453125	919.8816528320313	1032.021728515625	638.9797973632813	42.5664176940918	1083.852905273438	663.3516845703125	57.19879531860352	1044.848022460938	649.6505126953125	91.24778747558594	1085.515869140625	751.7772827148438	471.1045532226563	1034.729125976563	809.4025268554688	1089.172973632813	1048.703125	757.0204467773438	537.5547485351563	1039.94189453125	761.7005615234375	517.8595581054688	1161.197998046875	864.82080078125	54.48077774047852	1124.941528320313	876.55908203125	66.35420989990234	1077.36669921875	836.2590942382813	49.42623519897461	1009.149291992188	706.0850830078125	1042.922119140625	1150.645751953125	707.56201171875	188.8373870849609	1034.9775390625	672.6480102539063	192.9544219970703	1077.55517578125	705.101318359375	268.84130859375	1025.983032226563	672.546875	273.52734375	1069.133422851563	778.923583984375	646.3334350585938	1025.68115234375	717.73583984375	647.1521606445313	1065.605834960938	772.6646728515625	756.4932861328125	1020.453308105469	718.5421752929688	757.7034301757813	1063.368041992188	813.7338256835938	455.9447326660156	1080.292846679688	714.1919555664063	107.8128433227539	1416.296020507813	736.4434204101563	125.993278503418	1333.979858398438	862.5845947265625	1033.101440429688	1341.470947265625	801.9739379882813	924.6234130859375	1395.893920898438	640.0133056640625	43.78141403198242	1374.710083007813	666.6565551757813	64.21719360351563	1414.7001953125	650.772216796875	93.64431762695313	1373.68798828125	750.0791015625	476.7316284179688	1408.180541992188	796.154052734375	1081.353881835938	1367.477172851563	759.3865356445313	539.1158447265625	1401.953125	763.9717407226563	523.1622314453125	1279.654663085938	861.7931518554688	57.83901977539063	1327.23828125	870.459228515625	71.57389068603516	1372.953002929688	841.935791015625	49.26914596557617	1444.344482421875	698.5960693359375	1046.468017578125	1252.4150390625	701.1858520507813	182.2085571289063	1414.11181640625	669.2186279296875	190.535400390625	1374.941162109375	705.1223754882813	266.5079650878906	1425.111694335938	671.0333251953125	269.9765319824219	1383.69189453125	758.2827758789063	655.3385620117188	1406.723754882813	706.3065795898438	655.4712524414063	1353.882934570313	753.6724853515625	764.8681640625	1407.6826171875	705.6275024414063	766.0067749023438	1357.985473632813	811.5673217773438	460.3912658691406	1371.079711914063	
115	0.76	713.9689331054688	107.3412322998047	1037.132568359375	735.457275390625	120.7935180664063	1120.406005859375	880.655029296875	1029.023315429688	1086.76708984375	822.3336791992188	919.8867797851563	1032.013916015625	638.9871215820313	42.56684494018555	1083.848022460938	663.3524780273438	57.19929504394531	1044.848022460938	649.6519165039063	91.24672698974609	1085.510986328125	751.7791137695313	471.1011657714844	1034.713134765625	809.4004516601563	1089.169067382813	1048.692016601563	757.0259399414063	537.5484008789063	1039.94287109375	761.72021484375	517.8587036132813	1161.197509765625	864.8043823242188	54.47594451904297	1124.942016601563	876.5675048828125	66.35239410400391	1077.369018554688	836.2610473632813	49.4272575378418	1009.154846191406	706.0777587890625	1042.92333984375	1150.64111328125	707.5614013671875	188.8394165039063	1034.972534179688	672.6432495117188	192.9605255126953	1077.554931640625	705.0921630859375	268.8393249511719	1025.990356445313	672.5448608398438	273.5290832519531	1069.131713867188	778.9198608398438	646.3372802734375	1025.6689453125	717.735595703125	647.1484375	1065.605102539063	772.666748046875	756.494873046875	1020.442199707031	718.548583984375	757.7059936523438	1063.359985351563	813.738037109375	455.9427795410156	1080.288818359375	714.18505859375	107.8220825195313	1416.296508789063	736.4511108398438	125.988525390625	1333.981811523438	862.58642578125	1033.097900390625	1341.464965820313	801.9720458984375	924.6284790039063	1395.872436523438	640.0068969726563	43.78512954711914	1374.716674804688	666.6580810546875	64.22687530517578	1414.701171875	650.7677612304688	93.64247894287109	1373.683715820313	750.081298828125	476.7250366210938	1408.17138671875	796.1593627929688	1081.35400390625	1367.46044921875	759.396484375	539.1248168945313	1401.932983398438	763.9585571289063	523.1634521484375	1279.64697265625	861.795654296875	57.83645629882813	1327.239624023438	870.4630737304688	71.58262634277344	1372.960327148438	841.9407958984375	49.27237701416016	1444.352661132813	698.5905151367188	1046.459106445313	1252.410034179688	701.1822509765625	182.2068481445313	1414.1064453125	669.2145385742188	190.5379180908203	1374.941528320313	705.1217041015625	266.5025939941406	1425.10400390625	671.0391235351563	269.9766540527344	1383.690551757813	758.2892456054688	655.3414306640625	1406.715209960938	706.3029174804688	655.484130859375	1353.872192382813	753.67529296875	764.863037109375	1407.662841796875	705.6277465820313	766.00537109375	1357.977172851563	811.56494140625	460.3888854980469	1371.080810546875	
116	0.7666666666666667	713.9650268554688	107.3498153686523	1037.12353515625	735.4436645507813	120.8030471801758	1120.3984375	880.6530151367188	1029.026489257813	1086.76123046875	822.330078125	919.8889770507813	1031.99609375	638.990234375	42.5667839050293	1083.849853515625	663.3478393554688	57.20005416870117	1044.852905273438	649.6553344726563	91.24437713623047	1085.512939453125	751.7859497070313	471.1036682128906	1034.71337890625	809.398681640625	1089.1767578125	1048.674560546875	757.0271606445313	537.5452270507813	1039.937622070313	761.7366943359375	517.8685302734375	1161.188232421875	864.8178100585938	54.47110366821289	1124.941040039063	876.5634765625	66.35302734375	1077.369018554688	836.2601318359375	49.42243576049805	1009.160583496094	706.0762939453125	1042.91845703125	1150.635009765625	707.5575561523438	188.8483276367188	1034.962036132813	672.6514282226563	192.9640808105469	1077.555419921875	705.09375	268.8379211425781	1025.99072265625	672.5487060546875	273.525634765625	1069.135009765625	778.9148559570313	646.3421630859375	1025.664916992188	717.7401733398438	647.150390625	1065.602905273438	772.6539306640625	756.4957275390625	1020.435974121094	718.5457763671875	757.7061157226563	1063.353271484375	813.740966796875	455.9433898925781	1080.285034179688	714.1845092773438	107.823860168457	1416.306518554688	736.4470825195313	125.9870758056641	1333.981201171875	862.5859375	1033.094970703125	1341.450439453125	801.9673461914063	924.6294555664063	1395.849487304688	640.0164794921875	43.7667350769043	1374.7197265625	666.6557006835938	64.22182464599609	1414.704956054688	650.7658081054688	93.64086151123047	1373.684814453125	750.0768432617188	476.7261657714844	1408.171752929688	796.1580810546875	1081.350708007813	1367.453735351563	759.3917236328125	539.1079711914063	1401.910888671875	763.9708251953125	523.1576538085938	1279.648559570313	861.7974243164063	57.84324645996094	1327.24169921875	870.4566040039063	71.58545684814453	1372.964721679688	841.9375	49.27167510986328	1444.352905273438	698.590087890625	1046.453247070313	1252.411376953125	701.190185546875	182.2019653320313	1414.104248046875	669.2249145507813	190.5309143066406	1374.943359375	705.1207275390625	266.505126953125	1425.109130859375	671.0328979492188	269.9783935546875	1383.688354492188	758.28955078125	655.3471069335938	1406.69677734375	706.2981567382813	655.4735717773438	1353.860107421875	753.6737060546875	764.867431640625	1407.65380859375	705.630615234375	766.0016479492188	1357.9541015625	811.5576171875	460.3797607421875	1371.07958984375	
